<svg width="30" height="30" viewBox="0 0 30 30" fill="none" xmlns="http://www.w3.org/2000/svg">
<path d="M7.63563 16.5165C7.28144 15.0164 6.93549 13.5488 6.5813 12.0894C5.7988 8.83797 5.01629 5.58657 4.25025 2.32706C4.18436 2.03516 4.08552 1.92165 3.75604 1.92976C2.86645 1.96219 1.96863 1.93787 1.0708 1.93787C0.444794 1.93787 0 1.53245 0 0.972987C0 0.405411 0.436557 0 1.0708 0C2.32281 0 3.57483 0 4.83508 0C5.44461 0 5.78232 0.27568 5.92235 0.859472C6.14475 1.7757 6.37538 2.68382 6.57307 3.60005C6.62249 3.82708 6.71309 3.88384 6.93549 3.88384C10.5186 3.87573 14.1099 3.87573 17.6929 3.87573C20.6747 3.87573 23.6564 3.86762 26.63 3.87573C28.3927 3.88384 29.7765 5.36765 29.5706 7.05416C29.48 7.77579 29.2658 8.4731 29.1011 9.18662C28.5492 11.4894 28.0055 13.784 27.4454 16.0867C27.083 17.5786 25.971 18.4381 24.3978 18.4381C18.9696 18.4381 13.5497 18.4381 8.12161 18.4381C7.98982 18.4381 7.84979 18.43 7.718 18.4543C7.22378 18.5354 6.8696 18.9814 6.90254 19.476C6.93549 19.9543 7.33086 20.3435 7.82508 20.376C7.9404 20.3841 8.04748 20.376 8.16279 20.376C13.5992 20.376 19.0355 20.376 24.4719 20.3841C24.7025 20.3841 24.9496 20.4246 25.1556 20.5219C25.5345 20.7003 25.7157 21.1625 25.6251 21.5517C25.5345 21.9571 25.1885 22.2652 24.7684 22.3138C24.6861 22.3219 24.6037 22.322 24.5213 22.322C19.0026 22.322 13.4838 22.322 7.96511 22.322C6.44128 22.322 5.24692 21.3652 4.9751 19.9462C4.67034 18.3489 5.75761 16.8246 7.38028 16.557C7.46265 16.557 7.52855 16.5408 7.63563 16.5165ZM7.1167 5.82982C7.13318 5.92711 7.14141 6.00009 7.15789 6.06495C7.97334 9.47852 8.79704 12.884 9.60425 16.2975C9.65368 16.5084 9.76076 16.5165 9.9255 16.5165C14.7606 16.5165 19.6039 16.5165 24.439 16.5165C25.0485 16.5165 25.3862 16.2489 25.5262 15.657C26.2017 12.8434 26.8771 10.038 27.5443 7.22443C27.7502 6.34874 27.3301 5.83792 26.4076 5.83792C20.0899 5.83792 13.7721 5.83792 7.45442 5.83792C7.35557 5.82982 7.24026 5.82982 7.1167 5.82982Z" fill="#666666"/>
<path d="M10.8561 23.3066C12.4788 23.3066 13.8132 24.6202 13.8132 26.2256C13.8132 27.831 12.487 29.1284 10.8478 29.1365C9.23333 29.1365 7.8989 27.831 7.89066 26.2499C7.88243 24.6202 9.20862 23.3147 10.8561 23.3066ZM10.8396 25.2526C10.3042 25.2607 9.86759 25.6986 9.86759 26.2256C9.86759 26.7689 10.3289 27.2067 10.8808 27.1905C11.4162 27.1743 11.8445 26.7364 11.8363 26.2013C11.828 25.6824 11.375 25.2445 10.8396 25.2526Z" fill="#666666"/>
<path d="M24.6607 26.2418C24.6524 27.8472 23.318 29.1365 21.6789 29.1365C20.0562 29.1284 18.7301 27.8067 18.7383 26.2013C18.7548 24.5958 20.0809 23.3066 21.7201 23.3066C23.351 23.3147 24.6689 24.6364 24.6607 26.2418ZM22.6838 26.2256C22.692 25.6986 22.2472 25.2526 21.7118 25.2526C21.1764 25.2445 20.7234 25.6742 20.7152 26.2013C20.7069 26.7445 21.1517 27.1905 21.7036 27.1905C22.239 27.1905 22.6838 26.7607 22.6838 26.2256Z" fill="#666666"/>
</svg>
