<svg width="32" height="32" viewBox="0 0 32 32" fill="none" xmlns="http://www.w3.org/2000/svg">
<path d="M18.5747 30.7804C21.6847 30.2435 24.4044 28.816 26.6485 26.5465C28.7707 24.3991 30.1366 21.8002 30.722 18.8231C32.2466 10.9777 27.3559 3.33967 19.5869 1.43627C12.1229 -0.393926 4.5003 3.68131 1.87812 10.9045C1.41467 12.1856 1.13416 13.5033 1.04878 14.8333C1.04878 14.9187 1.02439 14.9919 1.0122 15.0651C1.0122 15.0895 1 15.1017 1 15.1261V16.8709C1.02439 17.0539 1.04878 17.2247 1.06098 17.4078C1.10977 17.7982 1.15855 18.1886 1.21953 18.5791C1.81714 22.0198 3.46362 24.9482 6.11019 27.2786C8.31769 29.2308 10.9521 30.4387 13.9157 30.8536C14.184 30.8902 14.4646 30.9268 14.7329 30.9512C14.8548 30.9634 14.9768 30.9756 15.0988 31H16.855C17.0379 30.9756 17.2087 30.9512 17.3916 30.9268C17.7941 30.8902 18.1966 30.8414 18.5747 30.7804ZM6.0736 24.8139L5.95164 25.2288L5.65893 24.9238C3.76853 22.9349 2.56111 20.0432 2.32938 16.9929C2.14644 14.5283 2.53672 10.8313 5.42721 7.30509C7.81765 4.38898 11.3423 2.58319 15.1353 2.33916C18.904 2.09514 22.6116 3.42508 25.3191 5.97515C31.3684 11.6854 30.5635 20.2629 26.3436 24.936L26.0509 25.2654L25.9289 24.8383C24.9411 21.3976 22.8433 19.0671 19.526 17.7128L19.1235 17.5542L19.4772 17.298C21.3066 15.9436 22.2091 14.1622 22.1603 12.0148C22.1237 10.2578 21.4164 8.74484 20.0382 7.51251C17.5746 5.31628 13.6962 5.56031 11.4155 8.06157C10.2813 9.3061 9.70806 11.0875 9.891 12.8323C10.0739 14.6137 11.013 16.1998 12.5376 17.2857L12.8913 17.542L12.4766 17.7128C9.18362 19.0549 7.0249 21.4464 6.0736 24.8139ZM16.0013 17.0539C13.3303 17.0539 11.135 14.8699 11.1228 12.1978C11.1106 10.9045 11.6107 9.68434 12.5376 8.75704C13.4645 7.82975 14.6963 7.30509 15.9891 7.30509C17.2941 7.30509 18.5259 7.81754 19.4528 8.75704C20.3797 9.68434 20.8797 10.9045 20.8675 12.1978C20.8431 14.8699 18.66 17.0539 16.0013 17.0539ZM16.5745 29.6823C16.4525 29.6945 16.355 29.6945 16.2574 29.7067H16.2452H16.233C12.7937 29.6701 9.891 28.6574 7.37859 26.6319C7.25663 26.5343 7.13467 26.3147 7.15906 26.1195C7.6591 22.2883 10.6716 19.1769 14.489 18.5303C19.1845 17.7372 23.5629 20.6411 24.6849 25.2898V25.3142C24.9289 26.3269 24.8923 26.4367 24.0751 27.0468C22.1847 28.4377 20.0504 29.2918 17.7331 29.5847C17.3185 29.6335 16.8916 29.6701 16.5745 29.6823Z" fill="#666666" stroke="#666666" stroke-width="0.7"/>
</svg>
