<svg width="31" height="30" viewBox="0 0 31 30" fill="none" xmlns="http://www.w3.org/2000/svg">
<path d="M20.7165 22.1876C14.931 26.8084 6.84596 25.4211 2.69221 20.2057C-1.24962 15.2511 -0.825772 8.08519 3.72005 3.65212C8.36123 -0.874822 15.5773 -1.2399 20.6848 2.81766C25.8664 6.92738 27.1485 14.7817 22.5179 20.4143C22.6133 20.5186 22.7086 20.6125 22.8146 20.7168C25.1988 23.0637 27.583 25.4107 29.9671 27.7576C30.3168 28.1018 30.5181 28.4982 30.4228 28.9884C30.2426 29.9167 29.13 30.3131 28.3777 29.7186C28.2611 29.6247 28.1658 29.5204 28.0598 29.4265C25.718 27.1213 23.3656 24.8057 21.0238 22.5005C20.9179 22.3753 20.8119 22.2814 20.7165 22.1876ZM12.6951 2.49431C7.11087 2.48388 2.54386 6.94824 2.52266 12.4452C2.50147 17.9631 7.05789 22.4692 12.6527 22.4796C18.237 22.49 22.804 18.0257 22.8252 12.5287C22.8464 7.01082 18.29 2.50474 12.6951 2.49431Z" fill="#666666"/>
</svg>
